<svg width="21" height="20" viewBox="0 0 21 20" fill="none" xmlns="http://www.w3.org/2000/svg">
<path fill-rule="evenodd" clip-rule="evenodd" d="M16.3642 0.845281C20.0264 2.05634 21.6323 6.07747 20.3712 9.89146C19.7323 11.6871 18.7037 13.2973 17.3585 14.6145C15.5136 16.3782 13.4897 17.9272 11.3169 19.2398L11.0702 19.3849C10.834 19.5238 10.5398 19.519 10.3082 19.3725L10.0801 19.2282C7.93125 17.8833 5.93216 16.3025 4.12151 14.5161C2.79113 13.1716 1.78808 11.5452 1.18278 9.75544C-0.0222905 5.90866 1.65376 1.91156 5.33571 0.758179L5.60201 0.681163C7.28953 0.231341 9.07707 0.473689 10.5787 1.33963L10.8456 1.50069L11.1102 1.34472C12.7084 0.454526 14.6115 0.266151 16.3642 0.845281ZM11.4554 2.84553L11.2576 2.98508C10.9968 3.16875 10.6469 3.1623 10.3931 2.96912C9.07095 1.96295 7.35204 1.65961 5.77126 2.153C2.91851 3.04664 1.59859 6.19442 2.57232 9.30324C3.10145 10.8672 3.98642 12.3021 5.15416 13.4823L5.67819 13.9881C7.09032 15.3213 8.61927 16.5302 10.2443 17.5977L10.7098 17.8957L10.5663 17.9845C12.6399 16.7319 14.5784 15.2482 16.3397 13.5645C17.5196 12.4091 18.4272 10.9883 18.9863 9.41733C20.0047 6.33694 18.7403 3.17096 15.9035 2.23285C14.4056 1.73792 12.7665 1.96448 11.4554 2.84553ZM6.94656 4.43941C7.33229 4.31964 7.74216 4.53499 7.86203 4.92041C7.9819 5.30582 7.76638 5.71535 7.38065 5.83511C6.6225 6.07051 6.07799 6.74691 6.00409 7.54927C5.96708 7.95117 5.61101 8.24698 5.20878 8.20999C4.80656 8.17301 4.51049 7.81722 4.54751 7.41533C4.67543 6.02636 5.62184 4.85072 6.94656 4.43941Z" fill="#333333"/>
</svg>
