<svg width="21" height="43" viewBox="0 0 21 43" fill="none" xmlns="http://www.w3.org/2000/svg">
<path fill-rule="evenodd" clip-rule="evenodd" d="M8.2092 0.816971C7.23705 1.04703 6.2544 1.52013 5.28513 2.22828C3.41435 3.542 1.9177 6.16677 1.28068 10.5286C1.04042 12.2345 0.919618 14.0609 0.921656 15.9101C0.920935 17.7459 1.04075 19.5747 1.2724 21.2477C1.88406 25.5593 3.20639 27.9994 4.99194 29.3519L5.31179 29.5795C6.25474 30.3048 7.23769 30.7931 8.22722 31.0223C8.3115 31.1065 8.51236 31.1848 8.73159 31.223L8.91191 31.246C9.00463 31.2534 9.10986 31.2552 9.26665 31.2552C10.2136 31.4328 11.1836 31.4577 12.1594 31.3288C12.4356 37.9184 12.9259 43.8627 12.9259 42.4098C12.9259 41.7896 12.8366 39.8696 12.7127 37.207L12.7127 37.2068C12.6329 35.4918 12.5387 33.4688 12.4449 31.2868C12.84 31.2225 13.2358 31.133 13.631 31.0183C14.4131 30.8359 15.2005 30.4872 15.9813 29.9763L16.5655 29.5628C16.9338 29.3152 17.2844 29.0248 17.615 28.6855C18.5082 28.352 19.124 27.8459 19.3386 27.2064C19.4876 26.7618 19.5189 26.2607 19.4328 25.7925C19.9291 24.5769 20.3152 23.0834 20.5699 21.2526C21.0388 17.8762 21.0388 13.9582 20.5701 10.5834C19.9392 6.04727 18.5138 3.6018 16.5509 2.22327C15.7807 1.66276 14.9982 1.24804 14.21 0.983175L13.6338 0.816971C11.8291 0.274226 10.0139 0.274226 8.2092 0.816971ZM12.1411 23.2385C13.0857 23.1936 14.0273 23.2299 14.9652 23.3468L14.9779 23.3482C15.7015 23.4202 16.4208 23.5637 17.1303 23.7778C18.2967 24.1173 19.0883 24.6802 19.3387 25.4265C19.3785 25.545 19.4098 25.6676 19.4328 25.7925C18.9318 27.0195 18.3186 27.9635 17.615 28.6855C17.5343 28.7156 17.4513 28.7444 17.3661 28.7717L17.1412 28.839C16.4176 29.0671 15.7008 29.2141 14.9792 29.284C14.1046 29.3891 13.234 29.4269 12.3656 29.398C12.2839 27.4018 12.2057 25.3144 12.1411 23.2385ZM11.9766 23.2471C11.9689 25.1462 12.0127 27.2656 12.0853 29.3864C11.9356 29.3789 11.786 29.3694 11.6364 29.358L11.2428 29.3485C11.1335 29.3406 11.0415 29.3257 10.9561 29.3015C10.2804 29.2294 9.67231 29.1154 9.08192 28.95L8.7294 28.8446C7.55936 28.5205 6.7608 27.9552 6.50189 27.1987C6.41129 26.9274 6.3629 26.6213 6.36319 26.3113C6.36238 26.0031 6.41013 25.7038 6.50283 25.4309C6.75458 24.7166 7.60084 24.1015 8.7077 23.7793C9.42238 23.5629 10.1413 23.4194 10.8646 23.3483C11.2357 23.3021 11.6064 23.2684 11.9766 23.2471Z" fill="#333333"/>
</svg>
