<svg width="79" height="24" viewBox="0 0 79 24" fill="none" xmlns="http://www.w3.org/2000/svg">
<path d="M78.7504 12.1984C78.7984 6.12345 73.9126 1.15981 67.8377 1.1118L11.9277 0.669929C5.85279 0.621918 0.889141 5.50771 0.841129 11.5827V11.5827C0.793118 17.6576 5.67891 22.6212 11.7539 22.6692L67.6638 23.1111C73.7388 23.1591 78.7024 18.2733 78.7504 12.1984V12.1984Z" fill="#FF4C3B"/>
<path d="M68.1329 16.1146L68.138 15.4754L65.7582 12.8287C65.479 12.5187 65.2491 12.2494 65.0686 12.0206C64.8881 11.7896 64.7549 11.5731 64.6689 11.3712C64.5805 11.1669 64.5372 10.9534 64.539 10.7309C64.541 10.4752 64.6043 10.2544 64.7289 10.0683C64.8511 9.88226 65.018 9.73916 65.2295 9.63903C65.441 9.5389 65.6781 9.48987 65.9409 9.49195C66.2202 9.49416 66.4636 9.55408 66.671 9.67173C66.8761 9.78699 67.0346 9.94805 67.1466 10.1549C67.2562 10.3617 67.31 10.6037 67.3078 10.8806L68.1458 10.8873C68.1492 10.4611 68.0539 10.0863 67.86 9.76281C67.666 9.43929 67.4005 9.18624 67.0634 9.00365C66.7239 8.82103 66.3423 8.72805 65.9185 8.7247C65.4924 8.72134 65.1141 8.80831 64.7836 8.98563C64.4531 9.16295 64.1932 9.40356 64.0037 9.70747C63.8143 10.0114 63.7181 10.3504 63.7151 10.7244C63.713 10.9919 63.7595 11.2539 63.8545 11.5103C63.9472 11.7644 64.1107 12.0486 64.345 12.3629C64.5769 12.6749 64.8994 13.0563 65.3125 13.507L66.9322 15.267L66.9317 15.3238L63.5512 15.2971L63.545 16.0783L68.1329 16.1146ZM59.805 16.1482C60.2216 16.1515 60.5975 16.0716 60.9326 15.9085C61.2677 15.7455 61.537 15.5203 61.7405 15.2331C61.944 14.9459 62.0567 14.6177 62.0786 14.2485L61.2263 14.2418C61.1906 14.5706 61.0393 14.8416 60.7725 15.055C60.5033 15.2659 60.1828 15.3699 59.8111 15.367C59.5129 15.3646 59.2483 15.2927 59.0174 15.1512C58.7841 15.0097 58.6022 14.8165 58.4715 14.5716C58.3385 14.3243 58.2732 14.0456 58.2757 13.7355C58.2782 13.4183 58.3503 13.1359 58.4919 12.8884C58.6312 12.6386 58.8222 12.4424 59.0648 12.2999C59.3074 12.1574 59.5838 12.0862 59.8939 12.0863C60.1164 12.0857 60.3446 12.1218 60.5784 12.1947C60.8123 12.2652 61.0045 12.3555 61.1551 12.4656L61.9798 12.3727L61.5677 8.78975L57.7894 8.75989L57.7833 9.54112L60.8229 9.56514L61.0617 11.712L61.0191 11.7116C60.8708 11.5921 60.6846 11.4924 60.4603 11.4125C60.236 11.3326 60.002 11.2917 59.7581 11.2897C59.3131 11.2862 58.9157 11.3896 58.566 11.5999C58.214 11.8079 57.9371 12.0945 57.7353 12.4599C57.5312 12.8252 57.4273 13.2434 57.4236 13.7145C57.4199 14.1785 57.5208 14.5937 57.7262 14.9599C57.9293 15.3237 58.2111 15.6124 58.5717 15.826C58.9322 16.0371 59.3433 16.1446 59.805 16.1482ZM52.2981 14.6258L52.3012 14.2423C52.3033 13.9771 52.2507 13.734 52.1436 13.513C52.0341 13.2896 51.8745 13.1108 51.6648 12.9765C51.4528 12.8399 51.1953 12.7704 50.8923 12.768C50.5846 12.7656 50.326 12.831 50.1166 12.9643C49.9072 13.0952 49.7484 13.2715 49.6401 13.4932C49.5318 13.7125 49.4766 13.9548 49.4745 14.2199L49.4715 14.6034C49.4694 14.8686 49.5219 15.1128 49.6291 15.3362C49.7339 15.5572 49.8911 15.736 50.1007 15.8726C50.308 16.0069 50.5631 16.0752 50.8662 16.0776C51.1739 16.08 51.4337 16.0158 51.6454 15.8849C51.8572 15.7516 52.0184 15.5753 52.129 15.356C52.2397 15.1343 52.296 14.8909 52.2981 14.6258ZM51.5767 14.2365L51.5737 14.62C51.572 14.8402 51.5183 15.0375 51.4128 15.2118C51.3073 15.3838 51.1267 15.4688 50.871 15.4668C50.6224 15.4648 50.4479 15.377 50.3475 15.2034C50.2447 15.0274 50.1942 14.8293 50.1959 14.6092L50.199 14.2256C50.2007 14.0055 50.252 13.8094 50.3528 13.6374C50.4536 13.463 50.6318 13.3768 50.8875 13.3788C51.1361 13.3808 51.3141 13.4698 51.4216 13.6458C51.5268 13.8195 51.5785 14.0164 51.5767 14.2365ZM55.9531 10.4926L55.9561 10.1091C55.9582 9.84394 55.9057 9.60086 55.7985 9.37983C55.689 9.15642 55.5294 8.9776 55.3198 8.84336C55.1078 8.70674 54.8503 8.63723 54.5472 8.63483C54.2395 8.6324 53.9809 8.69783 53.7715 8.83112C53.5622 8.96205 53.4033 9.13836 53.295 9.36004C53.1868 9.57937 53.1316 9.8216 53.1295 10.0867L53.1264 10.4703C53.1244 10.7354 53.1769 10.9797 53.284 11.2031C53.3888 11.4241 53.546 11.6029 53.7556 11.7395C53.9629 11.8737 54.2181 11.942 54.5211 11.9444C54.8288 11.9468 55.0886 11.8826 55.3003 11.7517C55.5121 11.6184 55.6733 11.4421 55.7839 11.2228C55.8946 11.0011 55.951 10.7577 55.9531 10.4926ZM55.2317 10.1034L55.2287 10.4869C55.2269 10.707 55.1733 10.9043 55.0677 11.0787C54.9622 11.2506 54.7816 11.3356 54.5259 11.3336C54.2773 11.3316 54.1028 11.2439 54.0024 11.0702C53.8996 10.8942 53.8491 10.6961 53.8509 10.476L53.8539 10.0925C53.8556 9.8723 53.9069 9.67621 54.0077 9.50418C54.1085 9.32978 54.2867 9.24359 54.5424 9.24561C54.791 9.24757 54.969 9.33658 55.0765 9.51262C55.1817 9.68628 55.2334 9.88319 55.2317 10.1034ZM55.6395 16.0159L50.6972 8.70384L49.8875 8.69744L54.8299 16.0095L55.6395 16.0159ZM42.8265 16.0282C43.3379 16.0323 43.7791 15.915 44.1504 15.6765C44.5216 15.4379 44.8083 15.1075 45.0105 14.6854C45.2127 14.2632 45.316 13.7798 45.3203 13.2354C45.3246 12.6814 45.2267 12.1917 45.0265 11.7664C44.8239 11.3386 44.5401 11.0037 44.175 10.7617C43.8076 10.5173 43.3777 10.3932 42.8853 10.3893C42.5018 10.3863 42.1556 10.4546 41.8467 10.5942C41.5378 10.7338 41.2841 10.9307 41.0856 11.1848C40.8871 11.4389 40.7628 11.7362 40.7128 12.0767L41.5508 12.0834C41.6167 11.8353 41.7605 11.6163 41.9822 11.4262C42.2015 11.2338 42.4958 11.1391 42.8651 11.142C43.1918 11.1446 43.4776 11.2321 43.7225 11.4045C43.965 11.5745 44.1537 11.8139 44.2885 12.1228C44.4211 12.4292 44.4857 12.7884 44.4824 13.2003C44.4791 13.6217 44.4099 13.9881 44.2749 14.2996C44.1375 14.611 43.9462 14.8521 43.701 15.023C43.4534 15.1939 43.1639 15.278 42.8325 15.2754C42.6147 15.2737 42.4173 15.2343 42.2403 15.1571C42.0634 15.0799 41.9139 14.9699 41.7919 14.8268C41.67 14.6838 41.5837 14.5127 41.5332 14.3134L40.6952 14.3068C40.74 14.6291 40.8549 14.92 41.0398 15.1796C41.2225 15.4367 41.4659 15.6422 41.7701 15.7962C42.0719 15.9477 42.4241 16.0251 42.8265 16.0282ZM39.4575 15.888L39.5006 10.4336L38.6626 10.427L38.6438 12.7991L38.0899 12.7947L36.1484 10.4071L35.0689 10.3986L37.2498 13.0437L34.9974 15.8527L36.0769 15.8612L37.8848 13.5743L38.6376 13.5803L38.6195 15.8813L39.4575 15.888ZM33.2583 14.6031L30.6639 10.3638L29.698 10.3561L29.6549 15.8105L30.4929 15.8171L30.5263 11.5985L33.1065 15.8378L34.0866 15.8455L34.1297 10.3911L33.2916 10.3845L33.2583 14.6031ZM28.69 17.3654L28.7085 15.0217L28.254 15.0181C28.1436 14.9013 28.0487 14.775 27.9693 14.6395C27.8899 14.5039 27.8213 14.3435 27.7636 14.1584C27.7035 13.9709 27.6532 13.7432 27.6127 13.4754C27.5723 13.2052 27.5369 12.8794 27.5068 12.498L27.3392 10.3375L23.8734 10.3101L23.8365 14.9832L22.9985 14.9766L22.9799 17.3203L23.818 17.3269L23.8303 15.7645L27.8643 15.7963L27.8519 17.3588L28.69 17.3654ZM27.3023 15.0106L24.6745 14.9899L24.7053 11.0979L26.5518 11.1125L26.683 12.4914C26.7377 13.0624 26.8071 13.5614 26.8913 13.9882C26.9756 14.415 27.1125 14.7558 27.3023 15.0106ZM21.8799 15.749L21.923 10.2947L21.085 10.288L21.0662 12.6601L20.5123 12.6558L18.5709 10.2682L17.4913 10.2596L19.6722 12.9048L17.4198 15.7138L18.4993 15.7223L20.3072 13.4354L21.0601 13.4414L21.0419 15.7424L21.8799 15.749ZM14.9029 15.8218C15.2486 15.8245 15.5627 15.7619 15.8455 15.6339C16.1282 15.5035 16.3535 15.3147 16.5211 15.0675C16.6888 14.8178 16.7741 14.5155 16.7769 14.1604C16.7794 13.8479 16.7198 13.5941 16.5983 13.399C16.4767 13.2015 16.3134 13.0464 16.1083 12.9335C15.9032 12.8206 15.6766 12.7359 15.4285 12.6795C15.178 12.6207 14.9262 12.5737 14.6732 12.5386C14.3421 12.4934 14.0736 12.4593 13.8679 12.4363C13.6597 12.411 13.5085 12.3708 13.4142 12.3156C13.3176 12.2603 13.2698 12.1653 13.2709 12.0303L13.2711 12.0019C13.2739 11.6515 13.3719 11.3801 13.5652 11.1875C13.7561 10.9948 14.0445 10.9 14.4304 10.9031C14.8305 10.9063 15.1435 10.9963 15.3694 11.1733C15.5952 11.3503 15.7536 11.5386 15.8443 11.7382L16.642 11.4604C16.5026 11.1278 16.3152 10.8683 16.0799 10.6817C15.8423 10.4928 15.5829 10.3606 15.3018 10.285C15.0183 10.207 14.7393 10.1669 14.4647 10.1647C14.2895 10.1633 14.0881 10.183 13.8605 10.2238C13.6305 10.2623 13.4085 10.3446 13.1944 10.4707C12.978 10.5969 12.7977 10.7884 12.6537 11.0453C12.5096 11.3022 12.4358 11.6473 12.4324 12.0805L12.404 15.6742L13.242 15.6808L13.2479 14.9422L13.2905 14.9425C13.3464 15.0613 13.4401 15.1887 13.5716 15.3247C13.7031 15.4607 13.8785 15.5769 14.098 15.6733C14.3174 15.7698 14.5857 15.8192 14.9029 15.8218ZM14.781 15.0679C14.4496 15.0653 14.1708 14.998 13.9445 14.866C13.7159 14.734 13.5444 14.5645 13.4301 14.3577C13.3133 14.1508 13.2559 13.9337 13.2577 13.7064L13.2637 12.9394C13.2989 12.9823 13.3767 13.022 13.4972 13.0584C13.6153 13.0925 13.7523 13.1232 13.9084 13.1505C14.0621 13.1753 14.2122 13.1978 14.3588 13.2179C14.5031 13.2357 14.6202 13.2508 14.7101 13.2633C14.9276 13.2935 15.1309 13.3412 15.3197 13.4066C15.5063 13.4697 15.6571 13.5644 15.7721 13.6908C15.8847 13.8148 15.9402 13.9833 15.9385 14.1964C15.9362 14.4875 15.8268 14.7069 15.6102 14.8543C15.3912 14.9994 15.1148 15.0706 14.781 15.0679Z" fill="white"/>
</svg>
