<svg width="15" height="12" viewBox="0 0 15 12" fill="none" xmlns="http://www.w3.org/2000/svg">
<path fill-rule="evenodd" clip-rule="evenodd" d="M7.34321 8.18458C7.2106 8.18353 7.08385 8.12985 6.99082 8.03535C6.8978 7.94084 6.84613 7.81325 6.84717 7.68065L6.89296 1.88783L4.73006 4.0178C4.6832 4.06392 4.62772 4.10036 4.56679 4.12504C4.50585 4.14971 4.44065 4.16215 4.37491 4.16163C4.30917 4.16111 4.24417 4.14765 4.18363 4.12201C4.12309 4.09637 4.0682 4.05906 4.02208 4.0122C3.97596 3.96535 3.93952 3.90987 3.91484 3.84894C3.89016 3.788 3.87773 3.7228 3.87825 3.65706C3.87877 3.59131 3.89223 3.52632 3.91787 3.46578C3.94351 3.40524 3.98082 3.35035 4.02767 3.30423L7.05129 0.328029C7.0981 0.281834 7.15357 0.245328 7.21451 0.220603C7.27545 0.195877 7.34067 0.183417 7.40644 0.183937C7.4722 0.184457 7.53722 0.197946 7.59776 0.223632C7.65831 0.249317 7.71319 0.286695 7.75927 0.333624L10.7355 3.35724C10.8286 3.45186 10.8803 3.57962 10.8793 3.71239C10.8782 3.84516 10.8245 3.97208 10.7299 4.06522C10.6352 4.15836 10.5075 4.2101 10.3747 4.20905C10.2419 4.208 10.115 4.15425 10.0219 4.05962L7.89292 1.89573L7.84714 7.68855C7.84609 7.82115 7.79241 7.94791 7.69791 8.04093C7.6034 8.13396 7.47581 8.18563 7.34321 8.18458ZM14.3232 10.7398C14.3243 10.6072 14.2726 10.4796 14.1796 10.3851C14.0866 10.2906 13.9598 10.2369 13.8272 10.2359L0.827604 10.1331C0.694999 10.1321 0.56741 10.1838 0.472903 10.2768C0.378397 10.3698 0.324716 10.4966 0.323668 10.6292C0.32262 10.7618 0.374291 10.8894 0.467315 10.9839C0.560339 11.0784 0.687096 11.1321 0.819701 11.1331L13.8193 11.2359C13.9519 11.2369 14.0795 11.1852 14.174 11.0922C14.2685 10.9992 14.3222 10.8724 14.3232 10.7398V10.7398Z" fill="black"/>
</svg>
