<svg width="15" height="12" viewBox="0 0 15 12" fill="none" xmlns="http://www.w3.org/2000/svg">
<path fill-rule="evenodd" clip-rule="evenodd" d="M14.398 0.815414C14.399 0.68281 14.3474 0.555221 14.2543 0.460714C14.1613 0.366208 14.0346 0.312526 13.902 0.311478L0.902368 0.20874C0.769764 0.207692 0.642174 0.259363 0.547668 0.352388C0.453162 0.445412 0.39948 0.572168 0.398432 0.704773C0.397384 0.837377 0.449055 0.964966 0.54208 1.05947C0.635104 1.15398 0.761861 1.20766 0.894465 1.20871L13.8941 1.31145C14.0267 1.3125 14.1543 1.26082 14.2488 1.1678C14.3433 1.07477 14.3969 0.948018 14.398 0.815414ZM7.37846 3.26002C7.24585 3.25897 7.11826 3.31064 7.02376 3.40366C6.92925 3.49669 6.87557 3.62344 6.87452 3.75605L6.82874 9.54887L4.69977 7.38497C4.60663 7.29035 4.47971 7.2366 4.34694 7.23555C4.21417 7.2345 4.08642 7.28624 3.9918 7.37938C3.89717 7.47252 3.84342 7.59944 3.84237 7.73221C3.84132 7.86498 3.89306 7.99273 3.9862 8.08736L6.9624 11.111C7.00847 11.1579 7.06336 11.1953 7.1239 11.221C7.18444 11.2467 7.24946 11.2601 7.31523 11.2607C7.38099 11.2612 7.44621 11.2487 7.50715 11.224C7.5681 11.1993 7.62356 11.1628 7.67038 11.1166L10.694 8.14037C10.7886 8.04723 10.8424 7.92031 10.8434 7.78754C10.8445 7.65477 10.7927 7.52702 10.6996 7.43239C10.6064 7.33777 10.4795 7.28402 10.3468 7.28297C10.214 7.28192 10.0862 7.33366 9.99161 7.4268L7.82871 9.55677L7.87449 3.76395C7.87554 3.63135 7.82387 3.50376 7.73084 3.40925C7.63782 3.31475 7.51106 3.26106 7.37846 3.26002Z" fill="black"/>
</svg>
