<svg width="72" height="13" viewBox="0 0 72 13" fill="none" xmlns="http://www.w3.org/2000/svg">
<path d="M7.17178 12.6056L3.17178 7.26469H1.73996V12.6056H0.330872V0.969238H1.73996V6.01469H2.3536L7.01269 0.969238H8.69451L3.98996 6.08287L8.8536 12.6056H7.17178Z" fill="#333333"/>
<path d="M13.3976 12.7874C12.6098 12.7874 11.9185 12.5999 11.3238 12.2249C10.7329 11.8499 10.2707 11.3253 9.93741 10.6511C9.60786 9.97681 9.44309 9.18894 9.44309 8.28742C9.44309 7.37833 9.60786 6.58477 9.93741 5.90674C10.2707 5.22871 10.7329 4.70219 11.3238 4.32719C11.9185 3.95219 12.6098 3.76469 13.3976 3.76469C14.1855 3.76469 14.8749 3.95219 15.4658 4.32719C16.0605 4.70219 16.5226 5.22871 16.8522 5.90674C17.1855 6.58477 17.3522 7.37833 17.3522 8.28742C17.3522 9.18894 17.1855 9.97681 16.8522 10.6511C16.5226 11.3253 16.0605 11.8499 15.4658 12.2249C14.8749 12.5999 14.1855 12.7874 13.3976 12.7874ZM13.3976 11.5829C13.9961 11.5829 14.4885 11.4295 14.8749 11.1226C15.2613 10.8158 15.5473 10.4124 15.7329 9.91242C15.9185 9.41242 16.0113 8.87075 16.0113 8.28742C16.0113 7.70409 15.9185 7.16053 15.7329 6.65674C15.5473 6.15295 15.2613 5.74575 14.8749 5.43515C14.4885 5.12454 13.9961 4.96924 13.3976 4.96924C12.7991 4.96924 12.3067 5.12454 11.9204 5.43515C11.534 5.74575 11.248 6.15295 11.0624 6.65674C10.8768 7.16053 10.784 7.70409 10.784 8.28742C10.784 8.87075 10.8768 9.41242 11.0624 9.91242C11.248 10.4124 11.534 10.8158 11.9204 11.1226C12.3067 11.4295 12.7991 11.5829 13.3976 11.5829Z" fill="#333333"/>
<path d="M25.24 7.62833V8.87833H20.4218V7.62833H25.24ZM20.74 3.87833V12.6056H19.3991V3.87833H20.74ZM26.2627 3.87833V12.6056H24.9218V3.87833H26.2627Z" fill="#333333"/>
<path d="M27.5241 5.12833V3.87833H34.615V5.12833H31.7513V12.6056H30.4104V5.12833H27.5241Z" fill="#333333"/>
<path d="M38.686 12.8101C38.133 12.8101 37.6311 12.706 37.1803 12.4976C36.7295 12.2855 36.3716 11.9806 36.1064 11.5829C35.8413 11.1814 35.7087 10.6965 35.7087 10.1283C35.7087 9.62833 35.8072 9.22303 36.0042 8.91242C36.2011 8.59803 36.4644 8.35181 36.7939 8.17378C37.1235 7.99575 37.4871 7.86318 37.8848 7.77606C38.2864 7.68515 38.6898 7.61318 39.0951 7.56015C39.6254 7.49197 40.0553 7.44083 40.3848 7.40674C40.7182 7.36886 40.9606 7.30636 41.1121 7.21924C41.2674 7.13212 41.3451 6.9806 41.3451 6.76469V6.71924C41.3451 6.15863 41.1917 5.72303 40.8848 5.41242C40.5818 5.10181 40.1216 4.94651 39.5042 4.94651C38.864 4.94651 38.3621 5.08666 37.9985 5.36697C37.6348 5.64727 37.3792 5.94651 37.2314 6.26469L35.9587 5.81015C36.186 5.27984 36.489 4.86697 36.8678 4.57151C37.2504 4.27227 37.667 4.06394 38.1178 3.94651C38.5723 3.8253 39.0193 3.76469 39.4587 3.76469C39.739 3.76469 40.061 3.79878 40.4246 3.86697C40.792 3.93136 41.1462 4.06583 41.4871 4.27037C41.8318 4.47492 42.1178 4.78363 42.3451 5.19651C42.5723 5.60939 42.686 6.16242 42.686 6.8556V12.6056H41.3451V11.4238H41.2769C41.186 11.6132 41.0345 11.8158 40.8223 12.0317C40.6102 12.2476 40.328 12.4314 39.9758 12.5829C39.6235 12.7344 39.1936 12.8101 38.686 12.8101ZM38.8905 11.6056C39.4208 11.6056 39.8678 11.5014 40.2314 11.2931C40.5989 11.0848 40.8754 10.8158 41.061 10.4863C41.2504 10.1567 41.3451 9.81015 41.3451 9.44651V8.21924C41.2883 8.28742 41.1633 8.34992 40.9701 8.40674C40.7807 8.45977 40.561 8.50712 40.311 8.54878C40.0648 8.58666 39.8242 8.62075 39.5894 8.65106C39.3583 8.67757 39.1708 8.7003 39.0269 8.71924C38.6784 8.76469 38.3527 8.83856 38.0496 8.94083C37.7504 9.03931 37.508 9.18894 37.3223 9.38969C37.1405 9.58666 37.0496 9.8556 37.0496 10.1965C37.0496 10.6624 37.222 11.0147 37.5667 11.2533C37.9151 11.4882 38.3564 11.6056 38.8905 11.6056Z" fill="#333333"/>
<path d="M45.1334 12.6056V3.87833H46.4743V7.67378H47.3607L50.4971 3.87833H52.2243L48.7016 8.08287L52.2698 12.6056H50.5425L47.6789 8.92378H46.4743V12.6056H45.1334Z" fill="#333333"/>
<path d="M53.2272 5.12833V3.87833H60.3181V5.12833H57.4544V12.6056H56.1135V5.12833H53.2272Z" fill="#333333"/>
<path d="M63.4331 7.03742H65.9332C66.9559 7.03742 67.7381 7.29689 68.2797 7.81583C68.8214 8.33477 69.0922 8.99197 69.0922 9.78742C69.0922 10.3101 68.971 10.7855 68.7286 11.2136C68.4862 11.6378 68.1301 11.9768 67.6604 12.2306C67.1907 12.4806 66.615 12.6056 65.9332 12.6056H62.2741V3.87833H63.615V11.3556H65.9332C66.4635 11.3556 66.8991 11.2155 67.24 10.9351C67.5809 10.6548 67.7513 10.295 67.7513 9.8556C67.7513 9.39348 67.5809 9.01659 67.24 8.72492C66.8991 8.43325 66.4635 8.28742 65.9332 8.28742H63.4331V7.03742ZM70.4786 12.6056V3.87833H71.8195V12.6056H70.4786Z" fill="#333333"/>
</svg>
